STARTFONT 2.1
FONT -FontForge-Permanent Marker-Book-R-Normal--28-280-72-72-P-161-ISO10646-1
SIZE 28 72 72
FONTBOUNDINGBOX 43 40 -8 -9
COMMENT "Generated by fontforge, http://fontforge.sourceforge.net"
COMMENT "Copyright (c) 2010 by Font Diner, Inc. All rights reserved."
STARTPROPERTIES 39
FOUNDRY "FontForge"
FAMILY_NAME "Permanent Marker"
WEIGHT_NAME "Book"
SLANT "R"
SETWIDTH_NAME "Normal"
ADD_STYLE_NAME ""
PIXEL_SIZE 28
POINT_SIZE 280
RESOLUTION_X 72
RESOLUTION_Y 72
SPACING "P"
AVERAGE_WIDTH 161
CHARSET_REGISTRY "ISO10646"
CHARSET_ENCODING "1"
FONTNAME_REGISTRY ""
CHARSET_COLLECTIONS "ISO10646-1"
FONT_NAME "PermanentMarker-Regular"
FACE_NAME "Permanent Marker Regular"
COPYRIGHT "Copyright (c) 2010 by Font Diner, Inc. All rights reserved."
FONT_VERSION "1.001"
FONT_ASCENT 22
FONT_DESCENT 6
UNDERLINE_POSITION -3
UNDERLINE_THICKNESS 2
X_HEIGHT 16
CAP_HEIGHT 19
RAW_ASCENT 799
RAW_DESCENT 200
NORM_SPACE 10
RELATIVE_WEIGHT 40
RELATIVE_SETWIDTH 50
SUPERSCRIPT_X 0
SUPERSCRIPT_Y 13
SUPERSCRIPT_SIZE 17
SUBSCRIPT_X 0
SUBSCRIPT_Y 3
SUBSCRIPT_SIZE 17
AVG_LOWERCASE_WIDTH 159
AVG_UPPERCASE_WIDTH 190
ENDPROPERTIES
CHARS 230
STARTCHAR space
ENCODING 32
SWIDTH 370 0
DWIDTH 10 0
BBX 1 1 0 0
BITMAP
00
ENDCHAR
STARTCHAR exclam
ENCODING 33
SWIDTH 260 0
DWIDTH 7 0
BBX 8 22 0 -1
BITMAP
04
0E
0F
0E
1F
1E
1E
1E
3E
3E
3C
3C
3C
38
10
00
00
78
F8
F8
70
20
ENDCHAR
STARTCHAR quotedbl
ENCODING 34
SWIDTH 492 0
DWIDTH 14 0
BBX 13 14 2 7
BITMAP
1060
3C70
3EF8
7CF8
7CF0
79F0
79E0
79E0
F9E0
F3E0
F3C0
F3C0
71C0
2100
ENDCHAR
STARTCHAR numbersign
ENCODING 35
SWIDTH 703 0
DWIDTH 20 0
BBX 19 20 1 0
BITMAP
018200
018700
03C700
03C780
03CF00
0FFFC0
7FFFE0
7FFFE0
7FFE00
0F1C00
0F3C00
0FFE00
FFFF80
FFFF80
FFF800
3C7800
7CF000
78F000
78F000
30E000
ENDCHAR
STARTCHAR dollar
ENCODING 36
SWIDTH 493 0
DWIDTH 14 0
BBX 15 22 1 -1
BITMAP
0080
00C0
01C0
01C0
01F8
07FC
3FFC
FFFE
FC00
FF00
FF80
1FC0
00C0
01C0
03C0
0FC0
7F80
7E00
7E00
1C00
1C00
0800
ENDCHAR
STARTCHAR percent
ENCODING 37
SWIDTH 643 0
DWIDTH 18 0
BBX 17 20 1 0
BITMAP
040080
0E0180
1E0380
3F0780
770F00
F79E00
FF3C00
7F7800
3CF000
01E000
03C000
079C00
0F3C00
1E7C00
3CFE00
78EE00
71FF00
F1FE00
F0FC00
E06000
ENDCHAR
STARTCHAR ampersand
ENCODING 38
SWIDTH 599 0
DWIDTH 17 0
BBX 16 14 0 1
BITMAP
0060
00F0
09F0
3DF0
7FF0
FFFE
FFFF
FFFF
7FFC
03E0
03C0
03C0
03C0
0380
ENDCHAR
STARTCHAR quotesingle
ENCODING 39
SWIDTH 265 0
DWIDTH 7 0
BBX 7 14 2 7
BITMAP
10
3C
3E
7C
7C
78
78
78
F8
F0
F0
F0
70
20
ENDCHAR
STARTCHAR parenleft
ENCODING 40
SWIDTH 361 0
DWIDTH 10 0
BBX 12 29 1 -5
BITMAP
0030
0070
00F0
01F0
03F0
07E0
0FC0
1F80
1F00
3E00
3E00
7C00
7C00
7800
7800
F800
F000
F000
F000
F000
F000
F000
F800
F800
7800
7800
3800
1800
1800
ENDCHAR
STARTCHAR parenright
ENCODING 41
SWIDTH 361 0
DWIDTH 10 0
BBX 12 29 -3 -5
BITMAP
0100
0380
01C0
01E0
01E0
01E0
01F0
01F0
01F0
00F0
00F0
00F0
01F0
01E0
01E0
01E0
03E0
03E0
07C0
07C0
0F80
1F80
3F00
7E00
FC00
F800
F000
E000
C000
ENDCHAR
STARTCHAR asterisk
ENCODING 42
SWIDTH 673 0
DWIDTH 19 0
BBX 18 13 2 7
BITMAP
061C00
0F3C00
0FF800
0FF800
07F800
FFFF80
FFFFC0
FFFF00
77F800
0FF800
0F7800
1F3800
1E1800
ENDCHAR
STARTCHAR plus
ENCODING 43
SWIDTH 579 0
DWIDTH 16 0
BBX 15 15 0 0
BITMAP
0080
01C0
03C0
03C0
03C0
03C0
7FFC
FFFE
7FFC
7F80
0780
0F80
0F00
0F00
0200
ENDCHAR
STARTCHAR comma
ENCODING 44
SWIDTH 204 0
DWIDTH 6 0
BBX 6 9 -3 -5
BITMAP
30
3C
3C
3C
7C
7C
F8
F0
20
ENDCHAR
STARTCHAR hyphen
ENCODING 45
SWIDTH 609 0
DWIDTH 17 0
BBX 14 5 1 5
BITMAP
0080
FFF8
FFFC
FFFC
7000
ENDCHAR
STARTCHAR period
ENCODING 46
SWIDTH 228 0
DWIDTH 6 0
BBX 5 5 -1 -1
BITMAP
78
F8
F8
78
20
ENDCHAR
STARTCHAR slash
ENCODING 47
SWIDTH 401 0
DWIDTH 11 0
BBX 14 20 -1 0
BITMAP
0004
000C
001C
003C
007C
0078
00F0
01E0
03C0
07C0
0F80
0F00
1E00
3C00
7800
F800
F000
F000
F000
E000
ENDCHAR
STARTCHAR zero
ENCODING 48
SWIDTH 686 0
DWIDTH 19 0
BBX 18 22 0 -1
BITMAP
001800
003C00
007E00
00FE00
01FE00
03FE00
07FE00
0FEF00
1F8F00
3F0F80
3E0780
7E0780
7C03C0
7C07C0
F807C0
F81FC0
FCFFC0
7FFF80
7FFF00
3FFE00
1FF000
078000
ENDCHAR
STARTCHAR one
ENCODING 49
SWIDTH 322 0
DWIDTH 9 0
BBX 7 21 1 0
BITMAP
20
30
78
3C
3C
3C
3C
3E
3E
3E
3C
3C
7C
7C
FC
F8
F8
F0
F0
F0
E0
ENDCHAR
STARTCHAR two
ENCODING 50
SWIDTH 650 0
DWIDTH 18 0
BBX 18 20 2 0
BITMAP
7FE000
FFF000
FFF800
FFFC00
FFFE00
007E00
01FC00
03FC00
07F800
0FF000
1FC000
3F8000
7F0000
FC0300
FC7F80
FFFFC0
FFFFC0
FFFF80
FFF800
7F0000
ENDCHAR
STARTCHAR three
ENCODING 51
SWIDTH 561 0
DWIDTH 16 0
BBX 15 20 0 0
BITMAP
07FC
7FFC
FFFE
FFFE
FFFE
FFFC
2FF8
1FE0
1FE0
1FF0
1FF8
07FC
00FC
003E
00FC
7FFC
7FFC
7FF0
FFE0
7E00
ENDCHAR
STARTCHAR four
ENCODING 52
SWIDTH 582 0
DWIDTH 16 0
BBX 15 22 1 -1
BITMAP
0060
0070
0070
6078
E0F0
F070
70F0
78F4
78FE
7FFE
7FFE
3FFC
3FE0
03C0
03C0
03C0
0380
0380
03C0
03E0
03C0
01C0
ENDCHAR
STARTCHAR five
ENCODING 53
SWIDTH 580 0
DWIDTH 16 0
BBX 18 20 1 0
BITMAP
030000
0F8200
1FFF80
7FFF80
7FFFC0
7FFF80
FFF800
FE0000
7F8000
7FC000
3FE000
0FE000
01F000
00F800
00F800
FFF800
FFF800
7FF000
3FE000
1F8000
ENDCHAR
STARTCHAR six
ENCODING 54
SWIDTH 500 0
DWIDTH 14 0
BBX 13 20 0 0
BITMAP
03C0
07C0
07E0
0FE0
1FC0
1F00
3E00
3E00
3C00
7C40
79F0
7BF0
F7F8
F7F8
F7F8
FFF8
FFF0
FFE0
FFC0
7E00
ENDCHAR
STARTCHAR seven
ENCODING 55
SWIDTH 576 0
DWIDTH 16 0
BBX 18 20 0 0
BITMAP
7FC000
7FF000
FFF800
FFFC00
7FFC00
007C00
003C00
003C00
007C00
03FFC0
3FFF80
3FFFC0
3FFF00
3FE000
03E000
07C000
078000
078000
070000
070000
ENDCHAR
STARTCHAR eight
ENCODING 56
SWIDTH 537 0
DWIDTH 15 0
BBX 14 20 2 0
BITMAP
1F98
7FBC
7FFC
FFDC
F3DC
F1FC
F0FC
FFF8
FFF0
7FE0
3F80
7F00
FF80
F780
F380
F3C0
FFC0
7F80
7F80
3F00
ENDCHAR
STARTCHAR nine
ENCODING 57
SWIDTH 529 0
DWIDTH 15 0
BBX 14 20 1 0
BITMAP
07E0
0FE0
1FF0
3FF8
7E78
7CF8
FFFC
FFFC
FFF8
7FF0
3CF0
00F0
00F0
00E0
01E0
01E0
01E0
01E0
01C0
01C0
ENDCHAR
STARTCHAR colon
ENCODING 58
SWIDTH 241 0
DWIDTH 7 0
BBX 7 13 -1 -1
BITMAP
38
3E
3C
3E
18
00
00
00
78
F8
F8
78
20
ENDCHAR
STARTCHAR semicolon
ENCODING 59
SWIDTH 245 0
DWIDTH 7 0
BBX 8 17 -2 -5
BITMAP
1E
1F
1E
1F
0C
00
00
00
30
3C
3C
3C
7C
78
F8
F0
60
ENDCHAR
STARTCHAR less
ENCODING 60
SWIDTH 625 0
DWIDTH 18 0
BBX 17 12 0 1
BITMAP
000F80
003F80
00FF80
07FE00
7FF800
FFC000
FE0000
7FC000
3FF000
0FFC00
01FC00
001E00
ENDCHAR
STARTCHAR equal
ENCODING 61
SWIDTH 586 0
DWIDTH 16 0
BBX 16 10 0 3
BITMAP
0020
7FFE
3FFF
7FFE
3000
0000
0FF8
FFFC
FFF8
FF80
ENDCHAR
STARTCHAR greater
ENCODING 62
SWIDTH 634 0
DWIDTH 18 0
BBX 17 12 -1 1
BITMAP
3E0000
1FC000
0FF800
07FE00
01FF00
007F80
01FF80
0FFF00
3FF000
FF8000
FE0000
F80000
ENDCHAR
STARTCHAR question
ENCODING 63
SWIDTH 556 0
DWIDTH 16 0
BBX 16 22 1 -1
BITMAP
0700
1FF8
3FFF
7FFF
7FFF
38FF
003F
007F
01FE
03FC
07F0
0FC0
1F00
1E00
1C00
0000
0000
7800
F800
F800
7800
2000
ENDCHAR
STARTCHAR at
ENCODING 64
SWIDTH 732 0
DWIDTH 21 0
BBX 20 22 0 -1
BITMAP
001400
003E00
003F00
007F80
00FF80
03F1C0
07C1E0
0F86E0
1F3EF0
3E7E70
7DFE70
FBFC70
F3DC70
F79EE0
E3FFC0
E3FF80
E0F800
F80000
7FFF00
1FFF80
07FF80
007E00
ENDCHAR
STARTCHAR A
ENCODING 65
SWIDTH 702 0
DWIDTH 20 0
BBX 21 20 -1 0
BITMAP
001C00
001E00
003F00
01FF00
03FF00
03FF00
07FF00
07EF80
0FCF80
0FCF80
1F8FF0
1FFFF8
3FFFF0
3FFFE0
3FFFC0
7CE3C0
7C03E0
F80FC0
7807C0
300780
ENDCHAR
STARTCHAR B
ENCODING 66
SWIDTH 686 0
DWIDTH 19 0
BBX 19 22 -1 -1
BITMAP
000800
07FF00
3FFF80
7FFFC0
FFFFE0
7F0FC0
7B1FC0
1FBF80
07FF80
07FF00
07FF00
0FFF80
0FE3C0
0F81E0
1F03E0
1F0FE0
1F3FE0
1FFFC0
3FFF80
1FFE00
1FF800
08C000
ENDCHAR
STARTCHAR C
ENCODING 67
SWIDTH 611 0
DWIDTH 17 0
BBX 17 20 0 0
BITMAP
000C00
003F00
00FF80
03FF00
0FFF00
1FFE00
3FF000
7FC000
7F0000
FE0000
FC0000
F80000
F00000
F00000
780000
7FFC00
7FFE00
3FFF00
0FFE00
01FC00
ENDCHAR
STARTCHAR D
ENCODING 68
SWIDTH 588 0
DWIDTH 16 0
BBX 16 20 0 0
BITMAP
3800
3E00
3F80
3FE0
3FF0
39F8
387C
3C1E
3C0F
3C07
3C0F
3C1F
787F
79FE
7FFC
FFF8
FFE0
7F80
7E00
7800
ENDCHAR
STARTCHAR E
ENCODING 69
SWIDTH 626 0
DWIDTH 18 0
BBX 18 20 0 0
BITMAP
001F80
03FFC0
1FFFC0
3FFF80
3FFE00
3FE000
1F0000
1F3800
1FFC00
3FFE00
3FFE00
3FF800
7C0000
FC0000
F80600
FFFF00
7FFF00
7FFF00
7FFE00
3FF800
ENDCHAR
STARTCHAR F
ENCODING 70
SWIDTH 575 0
DWIDTH 16 0
BBX 21 21 -1 0
BITMAP
000080
001FE0
01FFF8
0FFFF8
1FFFF0
1FF000
1FC000
0FC000
078000
078000
2F9E00
7FFF00
FFFF00
7FFE00
7FF000
3E0000
3C0000
3C0000
3C0000
3C0000
180000
ENDCHAR
STARTCHAR G
ENCODING 71
SWIDTH 789 0
DWIDTH 22 0
BBX 23 20 0 0
BITMAP
000600
001F80
007F80
00FFC0
01FF80
07FE00
0FF800
1FE000
3FC180
3F87E0
7E03F8
7E03FC
FC01FE
F803FE
F03FFE
FFFFFC
7FFFF0
7FFFC0
3FFC00
1FC000
ENDCHAR
STARTCHAR H
ENCODING 72
SWIDTH 695 0
DWIDTH 19 0
BBX 19 21 0 0
BITMAP
000100
080180
180380
1C03C0
1E03E0
1F03E0
3E03E0
3E03E0
3E03E0
3E07E0
3E07E0
3E7FC0
7FFFC0
7FFFC0
7FFF80
FFFF80
FF0F80
FE1F80
FC0F80
F80F00
780600
ENDCHAR
STARTCHAR I
ENCODING 73
SWIDTH 515 0
DWIDTH 14 0
BBX 19 20 -1 0
BITMAP
0FFFC0
0FFFE0
0FFFE0
07FFC0
077800
007800
00F800
00F000
00F000
01F000
01E000
01E000
03E000
03C000
07C000
07F000
FFF800
FFFC00
FFF800
7C8000
ENDCHAR
STARTCHAR J
ENCODING 74
SWIDTH 668 0
DWIDTH 19 0
BBX 23 20 -1 0
BITMAP
00FFFC
0FFFFC
1FFFFE
1FFFFE
1FFFFE
0E0F80
000F80
000F00
000F00
001F00
001F00
001E00
003E00
003E00
007C00
7FFC00
FFFC00
7FF800
7FF000
07C000
ENDCHAR
STARTCHAR K
ENCODING 75
SWIDTH 776 0
DWIDTH 22 0
BBX 22 20 0 0
BITMAP
038000
07C060
07C1F0
0FC3F8
0FCFF8
0F9FF0
1FBFC0
1FFF80
3FFE00
3FFC00
3FF800
7FF000
7FF800
7FFE00
7F3FF8
FE1FFC
FE0FFC
7C03F8
7800F0
780000
ENDCHAR
STARTCHAR L
ENCODING 76
SWIDTH 632 0
DWIDTH 18 0
BBX 17 20 0 0
BITMAP
078000
078000
0FC000
0F8000
0F8000
1F0000
1F0000
3F0000
3E0000
3E0000
7E0000
7C0000
7C0000
FC0000
F87C00
FFFF00
FFFF80
7FFF80
7FFF80
3F0000
ENDCHAR
STARTCHAR M
ENCODING 77
SWIDTH 973 0
DWIDTH 27 0
BBX 27 21 0 0
BITMAP
00800000
01C00300
03F00380
03F007C0
07F80FE0
07F81FE0
0FF87FE0
0FF8FFE0
1FFFFFC0
1FFFFFC0
3FFFFFC0
3FFFF7C0
7EFFC7C0
7E7F0FC0
7C180FC0
FC000F80
F8000F80
F8000F80
F0000F00
70000F00
70000400
ENDCHAR
STARTCHAR N
ENCODING 78
SWIDTH 684 0
DWIDTH 19 0
BBX 20 20 0 0
BITMAP
030180
03C1E0
07E1F0
07E3F0
0FE3F0
0FE3E0
0FC3E0
1FC3C0
1FC7C0
3FC7C0
3FC7C0
7FCFC0
7FDFC0
FFFF80
FDFF80
FCFF00
F8FF00
F87E00
783C00
300000
ENDCHAR
STARTCHAR O
ENCODING 79
SWIDTH 744 0
DWIDTH 21 0
BBX 20 21 0 0
BITMAP
000C00
001E00
003F00
007F80
01FF00
03FF00
07FF80
0FFF80
1FC7C0
1F83C0
3F03E0
7E01E0
7C01E0
7801F0
F803F0
F80FF0
FFFFE0
7FFFC0
7FFF80
3FFE00
1FF800
ENDCHAR
STARTCHAR P
ENCODING 80
SWIDTH 639 0
DWIDTH 18 0
BBX 18 21 1 0
BITMAP
001000
01FE00
07FF00
0FFF80
0FFF80
1FFF80
1F07C0
1E07C0
7E3FC0
7FFF80
FFFF80
FFFF00
FFFC00
7FE000
7E0000
7C0000
780000
F80000
F80000
F80000
700000
ENDCHAR
STARTCHAR Q
ENCODING 81
SWIDTH 744 0
DWIDTH 21 0
BBX 20 22 0 -2
BITMAP
003E00
003F00
003F80
007F80
01FFC0
03FFE0
07F1E0
0FE1F0
1FC0F0
3F00F0
7E78F0
FC7DF0
F83FF0
F81FF0
F03FE0
F3FFC0
FFFFC0
FFFFC0
7FFBC0
1FC3E0
0001C0
000080
ENDCHAR
STARTCHAR R
ENCODING 82
SWIDTH 646 0
DWIDTH 18 0
BBX 18 22 0 -1
BITMAP
002000
00F000
01F800
01FC00
03FE00
07FF00
1FDF00
3F9F00
3F0F80
3E3F00
3FFF00
3FFE00
7FFC00
7FE000
7F8000
7FC000
7FF000
FFFF80
7BFFC0
78FFC0
703FC0
000780
ENDCHAR
STARTCHAR S
ENCODING 83
SWIDTH 576 0
DWIDTH 16 0
BBX 19 20 0 0
BITMAP
007FC0
03FFC0
1FFFE0
3FFFE0
7FF7C0
FF0000
FFC000
FFE000
7FF000
1FF800
00F800
001C00
003C00
007C00
01FC00
07F800
3FF000
3FE000
3FC000
3E0000
ENDCHAR
STARTCHAR T
ENCODING 84
SWIDTH 607 0
DWIDTH 17 0
BBX 22 21 0 -1
BITMAP
007FF8
FFFFFC
FFFFFC
FFFFF8
7FFC00
7FF000
01F000
01F000
03E000
03E000
07C000
07C000
078000
0F8000
0F0000
0F0000
0F0000
0F0000
078000
078000
010000
ENDCHAR
STARTCHAR U
ENCODING 85
SWIDTH 695 0
DWIDTH 19 0
BBX 19 20 1 0
BITMAP
000180
0001C0
3001C0
7001E0
7801E0
7803E0
7C03E0
7C03E0
F807E0
F80FC0
F80FC0
F81F80
F87F00
FDFE00
FFFC00
7FFC00
7FF800
3FF000
3FC000
0F0000
ENDCHAR
STARTCHAR V
ENCODING 86
SWIDTH 583 0
DWIDTH 16 0
BBX 16 20 2 0
BITMAP
C007
E00F
F01F
F03F
F87F
F87E
F8FC
F9F8
F9F0
FBF0
FFE0
FFC0
7FC0
7F80
7F00
7F00
7E00
3E00
3E00
1C00
ENDCHAR
STARTCHAR W
ENCODING 87
SWIDTH 994 0
DWIDTH 28 0
BBX 28 20 1 0
BITMAP
0C0000C0
1E0000E0
1F0301F0
3F0781F0
3E07C1F0
3E0FC3F0
7E1FC3E0
7C1F87E0
7C3F87C0
7C3F87C0
F87F8FC0
F8FF9F80
F9FF9F80
FBFFFF00
FFFFFF00
FFF3FE00
FFE3FC00
7FC1FC00
3F01F800
1C00F000
ENDCHAR
STARTCHAR X
ENCODING 88
SWIDTH 623 0
DWIDTH 17 0
BBX 19 21 0 -1
BITMAP
180080
3C01C0
3E07E0
3F0FE0
1F9FE0
1FFF80
0FFF00
07FC00
07F800
07F000
0FF000
1FF800
3FF800
7FFC00
FE7E00
FC3E00
F83F00
F01F00
E01E00
E00E00
400000
ENDCHAR
STARTCHAR Y
ENCODING 89
SWIDTH 493 0
DWIDTH 14 0
BBX 16 22 1 -1
BITMAP
4004
701E
783F
787F
78FE
7CFC
7DF8
7FF0
7FF0
3FE0
3FC0
1FC0
1F80
1F00
3F00
3E00
7E00
7C00
FC00
F800
7800
3000
ENDCHAR
STARTCHAR Z
ENCODING 90
SWIDTH 664 0
DWIDTH 19 0
BBX 19 21 0 -1
BITMAP
0FFFC0
0FFFE0
0FFFE0
07FFE0
07FFE0
001FC0
003F80
00FF00
01FE00
07FC00
0FF000
3FE000
7F8000
FF0000
FE0700
F87F80
FFFF80
FFFF80
FFFE00
7FF000
3F0000
ENDCHAR
STARTCHAR bracketleft
ENCODING 91
SWIDTH 387 0
DWIDTH 11 0
BBX 21 30 -1 -5
BITMAP
01FFE0
03FFF8
01FFF8
01FFE0
03C000
03C000
03C000
03C000
07C000
078000
078000
078000
0F8000
0F0000
0F0000
0F0000
1F0000
1E0000
1E0000
3E0000
3C0000
3C0000
7C0000
7C0000
780000
7FF000
FFF800
FFF800
7FC000
400000
ENDCHAR
STARTCHAR backslash
ENCODING 92
SWIDTH 352 0
DWIDTH 10 0
BBX 6 22 2 -1
BITMAP
80
C0
E0
F0
F0
F0
F0
70
70
70
78
78
78
38
38
3C
3C
3C
3C
3C
3C
18
ENDCHAR
STARTCHAR bracketright
ENCODING 93
SWIDTH 403 0
DWIDTH 11 0
BBX 20 30 -8 -5
BITMAP
01FFE0
01FFE0
01FFF0
01FFE0
0081E0
0001E0
0001E0
0003C0
0003C0
0003C0
0007C0
000780
000780
000780
000F80
000F00
000F00
000F00
001F00
001E00
001E00
003E00
003C00
003C00
007C00
3FFC00
FFF800
FFF800
7FC000
400000
ENDCHAR
STARTCHAR asciicircum
ENCODING 94
SWIDTH 518 0
DWIDTH 15 0
BBX 13 16 0 5
BITMAP
00C0
00E0
00E0
01F0
03F0
07F0
07F0
0FF0
0F78
1E78
3E78
7C78
F878
F838
F038
6010
ENDCHAR
STARTCHAR underscore
ENCODING 95
SWIDTH 708 0
DWIDTH 20 0
BBX 23 4 -3 -1
BITMAP
7FFFF8
FFFFFE
FFFFFE
3F0000
ENDCHAR
STARTCHAR grave
ENCODING 96
SWIDTH 754 0
DWIDTH 21 0
BBX 8 9 8 12
BITMAP
20
70
F8
FC
7E
1F
0F
07
01
ENDCHAR
STARTCHAR a
ENCODING 97
SWIDTH 581 0
DWIDTH 16 0
BBX 17 17 -1 0
BITMAP
002000
007800
00F800
03F800
07F800
07FC00
0FBC00
0FBC00
1F3C00
1E1F80
3FFF80
3FFF00
7FFE00
798F00
781F00
F03E00
701C00
ENDCHAR
STARTCHAR b
ENCODING 98
SWIDTH 573 0
DWIDTH 16 0
BBX 16 18 -1 -1
BITMAP
03F8
3FFC
7FFE
FFDE
7C3E
367E
0FFC
0FF8
0FF8
0FFC
1F06
1E0F
1E1F
3CFF
3FFE
3FFC
1FF0
0B00
ENDCHAR
STARTCHAR c
ENCODING 99
SWIDTH 513 0
DWIDTH 14 0
BBX 14 17 0 0
BITMAP
0020
00F8
01FC
07FC
1FF8
3FE0
7F00
7E00
F800
F000
F000
E000
F000
7FF0
7FF8
1FF8
07F0
ENDCHAR
STARTCHAR d
ENCODING 100
SWIDTH 497 0
DWIDTH 14 0
BBX 13 17 0 0
BITMAP
2000
7800
3F00
7F80
77E0
31F0
3870
3838
3818
3838
78F8
79F8
7FF0
FFE0
FF80
7E00
7000
ENDCHAR
STARTCHAR e
ENCODING 101
SWIDTH 521 0
DWIDTH 15 0
BBX 15 17 0 0
BITMAP
000C
03FE
1FFE
3FFC
3FE0
3E00
1C00
3FF0
3FF8
3FF0
7FC0
7800
F010
FFF8
7FFC
7FF8
7FE0
ENDCHAR
STARTCHAR f
ENCODING 102
SWIDTH 455 0
DWIDTH 13 0
BBX 18 17 -1 0
BITMAP
001F00
01FF80
0FFFC0
3FFF80
3F8000
1F0000
0F0000
0F0000
2F7800
7FFC00
FFF800
7FF000
3C0000
380000
780000
780000
380000
ENDCHAR
STARTCHAR g
ENCODING 103
SWIDTH 652 0
DWIDTH 18 0
BBX 19 17 0 0
BITMAP
001000
003C00
00FE00
03FE00
07F800
0FE000
1FC000
3F0C00
7E1F00
7C1FC0
F80FE0
F007E0
F07FE0
FFFFC0
7FFF80
7FF800
3FC000
ENDCHAR
STARTCHAR h
ENCODING 104
SWIDTH 582 0
DWIDTH 16 0
BBX 16 17 0 0
BITMAP
000C
100C
380E
3C1F
3C0F
3C0F
3C1F
7C1F
3C3E
7DFE
7FFE
7FFE
FFFC
FE3C
F87C
F83C
F038
ENDCHAR
STARTCHAR i
ENCODING 105
SWIDTH 320 0
DWIDTH 9 0
BBX 6 17 2 0
BITMAP
10
30
38
78
7C
78
78
F8
F0
F0
F0
F0
F0
F0
F0
F0
70
ENDCHAR
STARTCHAR j
ENCODING 106
SWIDTH 534 0
DWIDTH 15 0
BBX 20 16 -1 0
BITMAP
1FFFE0
3FFFE0
3FFFF0
1F3C00
003C00
003C00
003C00
003800
007800
007800
00F800
00F000
7FF000
FFE000
7FC000
3F8000
ENDCHAR
STARTCHAR k
ENCODING 107
SWIDTH 645 0
DWIDTH 18 0
BBX 19 17 0 0
BITMAP
040000
070100
0F8780
1F1FC0
1F3F80
1E7F00
3FFC00
3FF800
3FF000
7FC000
7FE000
7FF000
7EFFC0
FC7FE0
F83FC0
780F80
700000
ENDCHAR
STARTCHAR l
ENCODING 108
SWIDTH 533 0
DWIDTH 15 0
BBX 14 17 0 0
BITMAP
0C00
0F00
0F00
1F00
1E00
1E00
3E00
3C00
7C00
7800
7800
7800
F8E0
FFF8
FFFC
7FFC
7F98
ENDCHAR
STARTCHAR m
ENCODING 109
SWIDTH 814 0
DWIDTH 23 0
BBX 23 18 0 -1
BITMAP
030000
03C038
07C03C
0FE0FC
0FE1FE
1FE3FC
1FEFFC
3FFFFC
3FFFFC
7DFF7C
7DFC78
78F078
F80078
F00078
F00070
F00070
600020
200000
ENDCHAR
STARTCHAR n
ENCODING 110
SWIDTH 564 0
DWIDTH 16 0
BBX 17 17 0 0
BITMAP
040400
070700
0F8F00
0F8F80
0F8F00
1F8F00
1F1E00
3F1E00
3F1E00
7F3E00
7F3E00
FFFC00
FBFC00
FBF800
F1F800
70F000
606000
ENDCHAR
STARTCHAR o
ENCODING 111
SWIDTH 628 0
DWIDTH 18 0
BBX 17 17 0 0
BITMAP
003000
00F800
01FC00
03F800
07FC00
0FFC00
1FDE00
3F0E00
3C0F00
7C0700
780700
F00F80
F03F80
FFFF00
7FFE00
7FFC00
3FE000
ENDCHAR
STARTCHAR p
ENCODING 112
SWIDTH 524 0
DWIDTH 15 0
BBX 15 18 1 -1
BITMAP
03E0
0FF8
1FFC
1FFC
3FFC
3C1C
78FE
FFFC
FFFC
FFF8
FFC0
FC00
F000
F000
F000
F000
F000
4000
ENDCHAR
STARTCHAR q
ENCODING 113
SWIDTH 625 0
DWIDTH 18 0
BBX 17 19 0 -2
BITMAP
007000
00F800
00FC00
01FE00
03FE00
0FEF00
1F8700
3F0780
7E0780
7CE780
F8FF80
F07F00
F07F00
E7FE00
FFFE00
7FFE00
3F8F00
000E00
000400
ENDCHAR
STARTCHAR r
ENCODING 114
SWIDTH 541 0
DWIDTH 15 0
BBX 15 18 0 -1
BITMAP
00C0
03E0
03F0
07F8
2FF8
3F78
3E3C
3CFC
7FF8
7FF8
7FE0
7F00
7F00
FFC0
F7FE
73FE
70FE
001E
ENDCHAR
STARTCHAR s
ENCODING 115
SWIDTH 463 0
DWIDTH 13 0
BBX 16 17 0 0
BITMAP
007E
03FE
1FFF
7FFF
FF80
FE00
FF80
7FC0
1FE0
00E0
0070
00F0
03E0
0FE0
7FC0
7F80
7E00
ENDCHAR
STARTCHAR t
ENCODING 116
SWIDTH 479 0
DWIDTH 13 0
BBX 18 18 0 -1
BITMAP
009F80
FFFFC0
FFFFC0
FFFFC0
7FE000
03C000
03C000
078000
078000
0F0000
0F0000
0F0000
1E0000
1E0000
1E0000
0E0000
0F0000
020000
ENDCHAR
STARTCHAR u
ENCODING 117
SWIDTH 584 0
DWIDTH 16 0
BBX 16 17 1 0
BITMAP
0004
0006
200E
700F
700F
780F
780F
F81F
F03E
F03E
F0FC
FBF8
FFF0
7FE0
7FE0
3F80
1E00
ENDCHAR
STARTCHAR v
ENCODING 118
SWIDTH 485 0
DWIDTH 14 0
BBX 14 17 2 0
BITMAP
4018
C038
E07C
F0F8
F0F8
F1F0
F3E0
F3C0
F7C0
FF80
FF00
7F00
7E00
7E00
7C00
3C00
3800
ENDCHAR
STARTCHAR w
ENCODING 119
SWIDTH 825 0
DWIDTH 23 0
BBX 24 17 1 0
BITMAP
000004
18000E
3C080E
3C1C1E
7C3E1F
7C3E3E
787E3C
787C3C
F8FC7C
F1FC78
F3FCF8
F7FDF0
FFFFF0
FFDFE0
FF8FC0
7E0FC0
3C0780
ENDCHAR
STARTCHAR x
ENCODING 120
SWIDTH 506 0
DWIDTH 14 0
BBX 16 18 0 -1
BITMAP
2000
3806
3C1F
3E3F
3FFE
1FFC
0FF0
0FE0
0FC0
1FC0
3FE0
7FE0
FCF0
F8F8
F078
E078
E030
4000
ENDCHAR
STARTCHAR y
ENCODING 121
SWIDTH 400 0
DWIDTH 11 0
BBX 13 18 1 -1
BITMAP
4030
F078
70F8
79F8
7BF0
7BE0
7FC0
3F80
3F00
1F00
1E00
3E00
7C00
7C00
F800
F000
F000
6000
ENDCHAR
STARTCHAR z
ENCODING 122
SWIDTH 547 0
DWIDTH 15 0
BBX 16 18 0 -1
BITMAP
0700
1FFE
1FFF
0FFF
043F
00FE
01F8
03F0
0FE0
1FC0
7F00
FE00
FC18
F8FE
FFFC
FFF8
7FC0
3E00
ENDCHAR
STARTCHAR braceleft
ENCODING 123
SWIDTH 448 0
DWIDTH 13 0
BBX 21 30 1 -5
BITMAP
00FFF0
01FFF8
01FFF8
01FFF0
01E000
01E000
03E000
03C000
03C000
03C000
0FC000
BF8000
FF0000
FC0000
FC0000
FE0000
7F0000
1F0000
1F0000
1E0000
1E0000
3E0000
3C0000
3C0000
7C0000
7FF800
7FFC00
7FF800
7FC000
200000
ENDCHAR
STARTCHAR bar
ENCODING 124
SWIDTH 332 0
DWIDTH 9 0
BBX 9 22 0 -1
BITMAP
0100
0300
0380
0380
0780
0780
0700
0F00
0F00
0E00
1E00
1E00
1C00
3C00
3C00
3800
7800
7000
F800
F000
F000
4000
ENDCHAR
STARTCHAR braceright
ENCODING 125
SWIDTH 481 0
DWIDTH 13 0
BBX 21 30 -8 -5
BITMAP
01FFC0
01FFE0
01FFE0
01FFE0
0081E0
0003E0
0003C0
0003C0
0003C0
0007C0
000780
000780
000FE0
0007F0
0003F8
0001F8
0007F8
001FF0
001FC0
001F00
003E00
003E00
003C00
007C00
007C00
7FF800
FFF800
FFF800
FF8000
400000
ENDCHAR
STARTCHAR asciitilde
ENCODING 126
SWIDTH 581 0
DWIDTH 16 0
BBX 15 5 0 6
BITMAP
1F0E
3F9E
7FFC
F3FC
E1F0
ENDCHAR
STARTCHAR uni00A0
ENCODING 160
SWIDTH 370 0
DWIDTH 10 0
BBX 1 1 0 0
BITMAP
00
ENDCHAR
STARTCHAR exclamdown
ENCODING 161
SWIDTH 260 0
DWIDTH 7 0
BBX 7 22 0 -1
BITMAP
0C
1E
1E
3E
1C
00
00
10
38
78
78
78
78
78
F0
F0
F0
F0
F0
E0
E0
40
ENDCHAR
STARTCHAR cent
ENCODING 162
SWIDTH 488 0
DWIDTH 14 0
BBX 13 22 0 -1
BITMAP
0040
00C0
01C0
01E0
01F0
03F8
0FF8
1FF0
3F80
7E00
F800
F000
F000
F000
7E00
7FF0
1FF8
1FE0
1E00
1E00
1C00
0800
ENDCHAR
STARTCHAR sterling
ENCODING 163
SWIDTH 586 0
DWIDTH 16 0
BBX 16 16 0 2
BITMAP
00FE
01FF
03FF
07FF
0780
0F00
7FF0
FFF8
7FF8
7E00
1E00
1E18
FFFC
FFFC
FFFC
7FE0
ENDCHAR
STARTCHAR currency
ENCODING 164
SWIDTH 509 0
DWIDTH 14 0
BBX 14 14 0 1
BITMAP
3188
3FFC
3FFC
1FF8
1FF0
3FE0
7CF0
78F0
7FF0
7FF0
7FE0
FFF0
E0E0
6060
ENDCHAR
STARTCHAR yen
ENCODING 165
SWIDTH 563 0
DWIDTH 16 0
BBX 16 18 0 0
BITMAP
0804
1C0E
1E1F
0E3F
1E7E
0F7C
0FF8
0FF0
0FF0
FFFC
7FFE
7FFC
3F80
0F00
1F00
1E00
1E00
0C00
ENDCHAR
STARTCHAR brokenbar
ENCODING 166
SWIDTH 301 0
DWIDTH 8 0
BBX 9 22 0 -1
BITMAP
0100
0300
0300
0780
0780
0700
0F00
0F00
0E00
0E00
0400
0000
0000
3800
3800
7800
7800
F000
F000
E000
E000
4000
ENDCHAR
STARTCHAR section
ENCODING 167
SWIDTH 630 0
DWIDTH 18 0
BBX 17 25 0 -3
BITMAP
007F00
07FF80
1FFF80
1FFF80
3FE300
3F0000
1FC000
1FF000
0FFC00
3FFE00
3FFF00
7F1F00
780F80
7EFF00
3FFF00
1FFE00
0FFC00
03FE00
00FE00
003E00
7FFE00
7FFE00
FFFC00
7FE000
1C0000
ENDCHAR
STARTCHAR dieresis
ENCODING 168
SWIDTH 754 0
DWIDTH 21 0
BBX 12 5 6 16
BITMAP
1000
70F0
F8F0
F8F0
7060
ENDCHAR
STARTCHAR copyright
ENCODING 169
SWIDTH 614 0
DWIDTH 17 0
BBX 16 17 1 3
BITMAP
03E0
0FF8
1F0C
3C2E
38F6
73F7
F7C7
EF03
EC03
CC07
CC07
EFCE
E7DE
601C
7078
3FF0
0FC0
ENDCHAR
STARTCHAR ordfeminine
ENCODING 170
SWIDTH 454 0
DWIDTH 13 0
BBX 13 12 0 6
BITMAP
0380
03C0
0FC0
1FC0
3FC0
3FE0
3FF0
7FF8
7FE0
F7E0
F1E0
61C0
ENDCHAR
STARTCHAR guillemotleft
ENCODING 171
SWIDTH 566 0
DWIDTH 16 0
BBX 15 13 0 -1
BITMAP
0306
070E
0F1E
1E7C
7DF8
F9F0
F1E0
F1E0
79F0
3CF8
1E38
0E1C
0204
ENDCHAR
STARTCHAR logicalnot
ENCODING 172
SWIDTH 698 0
DWIDTH 20 0
BBX 18 10 0 0
BITMAP
001000
FFFF00
FFFF80
FFFFC0
7C0780
000780
000F00
000F00
000F00
000E00
ENDCHAR
STARTCHAR sfthyphen
ENCODING 173
SWIDTH 608 0
DWIDTH 17 0
BBX 14 5 1 5
BITMAP
0080
FFF8
FFFC
FFFC
7000
ENDCHAR
STARTCHAR registered
ENCODING 174
SWIDTH 624 0
DWIDTH 17 0
BBX 16 17 1 3
BITMAP
03F0
07F8
1F0C
3C66
38F7
71F7
73B3
E77B
E7F3
E7C3
EF87
EFF7
ECFE
703C
3078
1FF0
07C0
ENDCHAR
STARTCHAR macron
ENCODING 175
SWIDTH 754 0
DWIDTH 21 0
BBX 10 4 7 17
BITMAP
0F80
FFC0
FFC0
FF80
ENDCHAR
STARTCHAR degree
ENCODING 176
SWIDTH 284 0
DWIDTH 8 0
BBX 9 9 2 14
BITMAP
0400
0E00
1E00
3F00
7F00
7700
FF80
7F00
7C00
ENDCHAR
STARTCHAR plusminus
ENCODING 177
SWIDTH 559 0
DWIDTH 16 0
BBX 17 20 -1 -1
BITMAP
006000
00F000
00F000
00F000
00F000
07FE00
3FFF00
3FFF80
1FFE00
0BE000
03E000
03C000
03C000
018000
000000
1FF800
FFFC00
FFFE00
7FF800
200000
ENDCHAR
STARTCHAR twosuperior
ENCODING 178
SWIDTH 386 0
DWIDTH 11 0
BBX 10 10 2 10
BITMAP
7C00
FF00
FF80
6F80
3F00
7E00
FB80
FFC0
FFC0
FF00
ENDCHAR
STARTCHAR threesuperior
ENCODING 179
SWIDTH 366 0
DWIDTH 10 0
BBX 9 10 2 10
BITMAP
3E00
FF00
FF80
FF00
3E00
3F00
0F80
3F80
3F80
7E00
ENDCHAR
STARTCHAR acute
ENCODING 180
SWIDTH 754 0
DWIDTH 21 0
BBX 8 9 8 12
BITMAP
02
0F
1F
3F
7E
FC
F8
F0
40
ENDCHAR
STARTCHAR mu
ENCODING 181
SWIDTH 569 0
DWIDTH 16 0
BBX 16 18 0 -3
BITMAP
0004
0006
300E
380F
380F
3C0E
381E
783E
787C
78FC
7FF8
7FF0
FFE0
FFC0
FF00
E000
E000
E000
ENDCHAR
STARTCHAR paragraph
ENCODING 182
SWIDTH 729 0
DWIDTH 20 0
BBX 20 22 2 -1
BITMAP
0007C0
03FFE0
1FFFF0
7FFFF0
FFFFC0
FFF380
FCF780
F0E780
F9E780
FDE700
7FEF00
1FFF00
0FFF00
03FF80
03DF80
03DE00
079E00
039E00
079E00
079F00
070F00
010600
ENDCHAR
STARTCHAR periodcentered
ENCODING 183
SWIDTH 226 0
DWIDTH 6 0
BBX 5 5 1 8
BITMAP
20
F0
F8
F8
70
ENDCHAR
STARTCHAR cedilla
ENCODING 184
SWIDTH 754 0
DWIDTH 21 0
BBX 10 11 7 -9
BITMAP
0800
1E00
3C00
3C00
3F00
1F80
03C0
07C0
FFC0
7F80
0800
ENDCHAR
STARTCHAR onesuperior
ENCODING 185
SWIDTH 206 0
DWIDTH 6 0
BBX 4 10 2 10
BITMAP
60
70
70
70
70
70
F0
F0
E0
E0
ENDCHAR
STARTCHAR ordmasculine
ENCODING 186
SWIDTH 445 0
DWIDTH 12 0
BBX 12 12 0 6
BITMAP
0380
07C0
0FC0
1FC0
3FE0
7FE0
7CF0
F8F0
FFF0
FFF0
7FE0
3F80
ENDCHAR
STARTCHAR guillemotright
ENCODING 187
SWIDTH 595 0
DWIDTH 17 0
BBX 16 13 -1 -1
BITMAP
2040
3870
3C78
1E3E
0F1E
078F
0F9F
1FBF
3E7C
78F0
F0E0
E0C0
4080
ENDCHAR
STARTCHAR onequarter
ENCODING 188
SWIDTH 705 0
DWIDTH 20 0
BBX 18 22 1 -1
BITMAP
000400
300C00
781C00
783C00
383C00
387C00
78F800
79F000
71E000
73C000
778300
0FE700
1F6700
3E7780
3C7FC0
787FC0
F07F80
F00E00
F01C00
F01E00
E00E00
000800
ENDCHAR
STARTCHAR onehalf
ENCODING 189
SWIDTH 750 0
DWIDTH 21 0
BBX 19 21 1 0
BITMAP
000400
300C00
781C00
783C00
383C00
387C00
78F800
79F000
71E000
73C000
778000
0FBE00
1F7F00
3E7F80
3C1F80
781F00
F03E00
F07FC0
F07FE0
F07FC0
E03E00
ENDCHAR
STARTCHAR threequarters
ENCODING 190
SWIDTH 818 0
DWIDTH 23 0
BBX 20 21 2 -1
BITMAP
7F00C0
FF81C0
FF83C0
7F07C0
7E0F80
3F1F00
7F3E00
FF7C00
FEF800
79F0C0
03E8C0
07DDE0
0F9DE0
1F1FF0
3E1FE0
3C1FC0
780700
780700
700700
700700
000200
ENDCHAR
STARTCHAR questiondown
ENCODING 191
SWIDTH 556 0
DWIDTH 16 0
BBX 16 22 -2 -1
BITMAP
0002
000E
001F
000F
000F
0002
0000
0018
003C
00FC
01F8
07F0
1FE0
3FC0
7F00
7E00
FC04
FFFE
FFFE
FFFE
3FFC
03F8
ENDCHAR
STARTCHAR Agrave
ENCODING 192
SWIDTH 702 0
DWIDTH 20 0
BBX 21 30 -1 0
BITMAP
001000
003800
007C00
007E00
003F00
000F80
000780
000380
000080
000000
001C00
001E00
003F00
01FF00
03FF00
03FF00
07FF00
07EF80
0FCF80
0FCF80
1F8FF0
1FFFF8
3FFFF0
3FFFE0
3FFFC0
7CE3C0
7C03E0
F80FC0
7807C0
300780
ENDCHAR
STARTCHAR Aacute
ENCODING 193
SWIDTH 702 0
DWIDTH 20 0
BBX 21 30 -1 0
BITMAP
000100
000380
0007C0
000FC0
001F00
003E00
007C00
003800
002000
000000
001C00
001E00
003F00
01FF00
03FF00
03FF00
07FF00
07EF80
0FCF80
0FCF80
1F8FF0
1FFFF8
3FFFF0
3FFFE0
3FFFC0
7CE3C0
7C03E0
F80FC0
7807C0
300780
ENDCHAR
STARTCHAR Acircumflex
ENCODING 194
SWIDTH 702 0
DWIDTH 20 0
BBX 21 29 -1 0
BITMAP
000400
001E00
003F80
007FC0
00FBE0
00F1E0
00E0C0
004040
000000
001C00
001E00
003F00
01FF00
03FF00
03FF00
07FF00
07EF80
0FCF80
0FCF80
1F8FF0
1FFFF8
3FFFF0
3FFFE0
3FFFC0
7CE3C0
7C03E0
F80FC0
7807C0
300780
ENDCHAR
STARTCHAR Atilde
ENCODING 195
SWIDTH 702 0
DWIDTH 20 0
BBX 21 27 -1 0
BITMAP
001E38
003F38
007FF8
00F7F0
00E3E0
000000
000000
001C00
001E00
003F00
01FF00
03FF00
03FF00
07FF00
07EF80
0FCF80
0FCF80
1F8FF0
1FFFF8
3FFFF0
3FFFE0
3FFFC0
7CE3C0
7C03E0
F80FC0
7807C0
300780
ENDCHAR
STARTCHAR Adieresis
ENCODING 196
SWIDTH 702 0
DWIDTH 20 0
BBX 21 27 -1 0
BITMAP
002000
00E1E0
00F1F0
00F1E0
00E0C0
000000
000000
001C00
001E00
003F00
01FF00
03FF00
03FF00
07FF00
07EF80
0FCF80
0FCF80
1F8FF0
1FFFF8
3FFFF0
3FFFE0
3FFFC0
7CE3C0
7C03E0
F80FC0
7807C0
300780
ENDCHAR
STARTCHAR Aring
ENCODING 197
SWIDTH 702 0
DWIDTH 20 0
BBX 21 27 -1 0
BITMAP
000300
000780
000F80
001F80
003DC0
003BC0
003FC0
003F80
001E00
003F00
01FF00
03FF00
03FF00
07FF00
07EF80
0FCF80
0FCF80
1F8FF0
1FFFF8
3FFFF0
3FFFE0
3FFFC0
7CE3C0
7C03E0
F80FC0
7807C0
300780
ENDCHAR
STARTCHAR AE
ENCODING 198
SWIDTH 1153 0
DWIDTH 32 0
BBX 35 20 -2 0
BITMAP
0007000FC0
000781FFE0
001FCFFFE0
007FDFFFC0
00FFDFFF00
01FFDFF000
01FFDF0000
03F7CFBC00
07E7CFFE00
07C7DFFF00
0FC7FFFE00
0FFFFFFC00
1FFFFE0000
3EFFFC0000
3EFFFC0200
7CE3FFFF00
7C07FFFF80
F80FFFFF80
F807FFFF00
700F1FF800
ENDCHAR
STARTCHAR Ccedilla
ENCODING 199
SWIDTH 611 0
DWIDTH 17 0
BBX 17 29 0 -9
BITMAP
000C00
003F00
00FF80
03FF00
0FFF00
1FFE00
3FF000
7FC000
7F0000
FE0000
FC0000
F80000
F00000
F00000
780000
7FFC00
7FFE00
3FFF00
0FFE00
07FC00
0F0000
0E0000
0F8000
07E000
01E000
00F000
3FF000
3FE000
1F8000
ENDCHAR
STARTCHAR Egrave
ENCODING 200
SWIDTH 626 0
DWIDTH 18 0
BBX 18 30 0 0
BITMAP
00C000
01E000
01F000
01F800
00FC00
007E00
003E00
000E00
000400
000000
001F80
03FFC0
1FFFC0
3FFF80
3FFE00
3FE000
1F0000
1F3800
1FFC00
3FFE00
3FFE00
3FF800
7C0000
FC0000
F80600
FFFF00
7FFF00
7FFF00
7FFE00
3FF800
ENDCHAR
STARTCHAR Eacute
ENCODING 201
SWIDTH 626 0
DWIDTH 18 0
BBX 18 30 0 0
BITMAP
000200
000F00
001F00
003F00
007E00
00FC00
00F800
00F000
004000
000000
001F80
03FFC0
1FFFC0
3FFF80
3FFE00
3FE000
1F0000
1F3800
1FFC00
3FFE00
3FFE00
3FF800
7C0000
FC0000
F80600
FFFF00
7FFF00
7FFF00
7FFE00
3FF800
ENDCHAR
STARTCHAR Ecircumflex
ENCODING 202
SWIDTH 626 0
DWIDTH 18 0
BBX 18 29 0 0
BITMAP
001000
007C00
00FE00
01FF00
03EF80
03C780
038380
010100
000000
001F80
03FFC0
1FFFC0
3FFF80
3FFE00
3FE000
1F0000
1F3800
1FFC00
3FFE00
3FFE00
3FF800
7C0000
FC0000
F80600
FFFF00
7FFF00
7FFF00
7FFE00
3FF800
ENDCHAR
STARTCHAR Edieresis
ENCODING 203
SWIDTH 626 0
DWIDTH 18 0
BBX 18 27 0 0
BITMAP
008000
03C780
03E7C0
03C780
038300
000000
000000
001F80
03FFC0
1FFFC0
3FFF80
3FFE00
3FE000
1F0000
1F3800
1FFC00
3FFE00
3FFE00
3FF800
7C0000
FC0000
F80600
FFFF00
7FFF00
7FFF00
7FFE00
3FF800
ENDCHAR
STARTCHAR Igrave
ENCODING 204
SWIDTH 515 0
DWIDTH 14 0
BBX 19 31 -1 0
BITMAP
00C000
01E000
01F000
01F800
00FC00
007E00
003E00
000E00
000600
000000
000000
0FFFC0
0FFFE0
0FFFE0
07FFC0
077800
007800
00F800
00F000
00F000
01F000
01E000
01E000
03E000
03C000
07C000
07F000
FFF800
FFFC00
FFF800
7C8000
ENDCHAR
STARTCHAR Iacute
ENCODING 205
SWIDTH 515 0
DWIDTH 14 0
BBX 19 31 -1 0
BITMAP
000080
0001C0
0003E0
0007E0
000FC0
001F00
003E00
001C00
001000
000000
000000
0FFFC0
0FFFE0
0FFFE0
07FFC0
077800
007800
00F800
00F000
00F000
01F000
01E000
01E000
03E000
03C000
07C000
07F000
FFF800
FFFC00
FFF800
7C8000
ENDCHAR
STARTCHAR Icircumflex
ENCODING 206
SWIDTH 515 0
DWIDTH 14 0
BBX 19 30 -1 0
BITMAP
000800
001E00
007F00
00FF80
01F7C0
01E3C0
00C1C0
008080
000000
000000
0FFFC0
0FFFE0
0FFFE0
07FFC0
077800
007800
00F800
00F000
00F000
01F000
01E000
01E000
03E000
03C000
07C000
07F000
FFF800
FFFC00
FFF800
7C8000
ENDCHAR
STARTCHAR Idieresis
ENCODING 207
SWIDTH 515 0
DWIDTH 14 0
BBX 19 28 -1 0
BITMAP
002000
00E1E0
01F1E0
01F1E0
00E0C0
000000
000000
000000
0FFFC0
0FFFE0
0FFFE0
07FFC0
077800
007800
00F800
00F000
00F000
01F000
01E000
01E000
03E000
03C000
07C000
07F000
FFF800
FFFC00
FFF800
7C8000
ENDCHAR
STARTCHAR Eth
ENCODING 208
SWIDTH 656 0
DWIDTH 18 0
BBX 18 20 0 0
BITMAP
0E0000
0F8000
0FE000
0FF800
1FFC00
0E7E00
0E1F00
1F8780
FFC380
FFC1C0
FFC3C0
FF07C0
5E1FC0
1E7F80
1FFF00
3FFE00
3FF800
3FE000
1F8000
1C0000
ENDCHAR
STARTCHAR Ntilde
ENCODING 209
SWIDTH 684 0
DWIDTH 19 0
BBX 21 28 0 0
BITMAP
003E38
007F78
00FFF0
00FFF0
01E7E0
000000
000000
000000
030180
03C1E0
07E1F0
07E3F0
0FE3F0
0FE3E0
0FC3E0
1FC3C0
1FC7C0
3FC7C0
3FC7C0
7FCFC0
7FDFC0
FFFF80
FDFF80
FCFF00
F8FF00
F87E00
783C00
300000
ENDCHAR
STARTCHAR Ograve
ENCODING 210
SWIDTH 744 0
DWIDTH 21 0
BBX 20 30 0 0
BITMAP
000800
001C00
001E00
003F00
000F80
0007C0
0003E0
0001C0
000040
000C00
001E00
003F00
007F80
01FF00
03FF00
07FF80
0FFF80
1FC7C0
1F83C0
3F03E0
7E01E0
7C01E0
7801F0
F803F0
F80FF0
FFFFE0
7FFFC0
7FFF80
3FFE00
1FF800
ENDCHAR
STARTCHAR Oacute
ENCODING 211
SWIDTH 744 0
DWIDTH 21 0
BBX 20 30 0 0
BITMAP
000200
000700
000F80
001F80
003E00
007C00
00F800
007000
004000
000C00
001E00
003F00
007F80
01FF00
03FF00
07FF80
0FFF80
1FC7C0
1F83C0
3F03E0
7E01E0
7C01E0
7801F0
F803F0
F80FF0
FFFFE0
7FFFC0
7FFF80
3FFE00
1FF800
ENDCHAR
STARTCHAR Ocircumflex
ENCODING 212
SWIDTH 744 0
DWIDTH 21 0
BBX 20 29 0 0
BITMAP
000400
001F00
003F80
007FC0
00FBE0
00F1E0
00E0E0
004040
000C00
001E00
003F00
007F80
01FF00
03FF00
07FF80
0FFF80
1FC7C0
1F83C0
3F03E0
7E01E0
7C01E0
7801F0
F803F0
F80FF0
FFFFE0
7FFFC0
7FFF80
3FFE00
1FF800
ENDCHAR
STARTCHAR Otilde
ENCODING 213
SWIDTH 744 0
DWIDTH 21 0
BBX 21 27 0 0
BITMAP
003E38
007F78
00FFF0
00FFF0
01E7E0
000000
000C00
001E00
003F00
007F80
01FF00
03FF00
07FF80
0FFF80
1FC7C0
1F83C0
3F03E0
7E01E0
7C01E0
7801F0
F803F0
F80FF0
FFFFE0
7FFFC0
7FFF80
3FFE00
1FF800
ENDCHAR
STARTCHAR Odieresis
ENCODING 214
SWIDTH 744 0
DWIDTH 21 0
BBX 20 27 0 0
BITMAP
002000
00F1E0
00F1F0
00F1E0
00E0C0
000000
000C00
001E00
003F00
007F80
01FF00
03FF00
07FF80
0FFF80
1FC7C0
1F83C0
3F03E0
7E01E0
7C01E0
7801F0
F803F0
F80FF0
FFFFE0
7FFFC0
7FFF80
3FFE00
1FF800
ENDCHAR
STARTCHAR multiply
ENCODING 215
SWIDTH 490 0
DWIDTH 14 0
BBX 14 15 0 0
BITMAP
2000
3818
3C7C
3EF8
1FF0
1FE0
0F80
1F80
3F80
7FC0
79E0
F1E0
E0E0
E0E0
4040
ENDCHAR
STARTCHAR Oslash
ENCODING 216
SWIDTH 744 0
DWIDTH 21 0
BBX 20 25 0 -4
BITMAP
000C20
001E70
003FF0
007FF0
01FFF0
03FFE0
07FFC0
0FFFC0
1FCFC0
1F9FC0
3F3FE0
7E7DE0
7CF9E0
79F9F0
F9F3F0
FBEFF0
FFFFE0
7FFFC0
7FFF80
3FFE00
1FF800
1E0000
1E0000
1E0000
040000
ENDCHAR
STARTCHAR Ugrave
ENCODING 217
SWIDTH 695 0
DWIDTH 19 0
BBX 19 28 1 0
BITMAP
020000
078000
07C000
07E000
03F000
01F800
00F800
007800
001180
0001C0
3001C0
7001E0
7801E0
7803E0
7C03E0
7C03E0
F807E0
F80FC0
F80FC0
F81F80
F87F00
FDFE00
FFFC00
7FFC00
7FF800
3FF000
3FC000
0F0000
ENDCHAR
STARTCHAR Uacute
ENCODING 218
SWIDTH 695 0
DWIDTH 19 0
BBX 19 29 1 0
BITMAP
000200
000700
000F80
001F80
003F00
007C00
00F800
007000
004000
000180
0001C0
3001C0
7001E0
7801E0
7803E0
7C03E0
7C03E0
F807E0
F80FC0
F80FC0
F81F80
F87F00
FDFE00
FFFC00
7FFC00
7FF800
3FF000
3FC000
0F0000
ENDCHAR
STARTCHAR Ucircumflex
ENCODING 219
SWIDTH 695 0
DWIDTH 19 0
BBX 19 29 1 0
BITMAP
002000
007800
01FC00
03FE00
07DF00
078F00
030700
020200
000000
000180
0001C0
3001C0
7001E0
7801E0
7803E0
7C03E0
7C03E0
F807E0
F80FC0
F80FC0
F81F80
F87F00
FDFE00
FFFC00
7FFC00
7FF800
3FF000
3FC000
0F0000
ENDCHAR
STARTCHAR Udieresis
ENCODING 220
SWIDTH 695 0
DWIDTH 19 0
BBX 19 27 1 0
BITMAP
010000
038700
07C780
07CF80
070300
000000
000000
000180
0001C0
3001C0
7001E0
7801E0
7803E0
7C03E0
7C03E0
F807E0
F80FC0
F80FC0
F81F80
F87F00
FDFE00
FFFC00
7FFC00
7FF800
3FF000
3FC000
0F0000
ENDCHAR
STARTCHAR Yacute
ENCODING 221
SWIDTH 493 0
DWIDTH 14 0
BBX 16 32 1 -1
BITMAP
000C
001E
003E
007E
00FC
01F8
01F0
01C0
0100
0000
4004
701E
783F
787F
78FE
7CFC
7DF8
7FF0
7FF0
3FE0
3FC0
1FC0
1F80
1F00
3F00
3E00
7E00
7C00
FC00
F800
7800
3000
ENDCHAR
STARTCHAR Thorn
ENCODING 222
SWIDTH 680 0
DWIDTH 19 0
BBX 18 20 1 0
BITMAP
180000
1C0000
3C0000
3FC000
7FFE00
7FFF00
7FFF80
7C1FC0
7C0FC0
FC1FC0
F83FC0
F8FF80
FFFF00
FFFC00
FFE000
FF0000
FC0000
F80000
780000
700000
ENDCHAR
STARTCHAR germandbls
ENCODING 223
SWIDTH 931 0
DWIDTH 26 0
BBX 29 17 0 0
BITMAP
007E03F0
03FE1FF0
1FFFFFF8
7FFFFFF8
FF83FC00
FE07F000
FF87FC00
7FC3FE00
1FE0FF00
00E00700
00700380
00F00780
03E01F00
0FE07F00
7FC3FE00
7F83FC00
7E01F000
ENDCHAR
STARTCHAR agrave
ENCODING 224
SWIDTH 581 0
DWIDTH 16 0
BBX 17 26 -1 0
BITMAP
004000
00E000
01F000
01F800
00FC00
003E00
001E00
000E00
000200
002000
007800
00F800
03F800
07F800
07FC00
0FBC00
0FBC00
1F3C00
1E1F80
3FFF80
3FFF00
7FFE00
798F00
781F00
F03E00
701C00
ENDCHAR
STARTCHAR aacute
ENCODING 225
SWIDTH 581 0
DWIDTH 16 0
BBX 17 27 -1 0
BITMAP
000400
000E00
003E00
007E00
00FC00
01F800
01F000
01E000
008000
000000
002000
007800
00F800
03F800
07F800
07FC00
0FBC00
0FBC00
1F3C00
1E1F80
3FFF80
3FFF00
7FFE00
798F00
781F00
F03E00
701C00
ENDCHAR
STARTCHAR acircumflex
ENCODING 226
SWIDTH 581 0
DWIDTH 16 0
BBX 17 25 -1 0
BITMAP
003000
007800
00FC00
01FE00
07CF80
078780
030300
010200
002000
007800
00F800
03F800
07F800
07FC00
0FBC00
0FBC00
1F3C00
1E1F80
3FFF80
3FFF00
7FFE00
798F00
781F00
F03E00
701C00
ENDCHAR
STARTCHAR atilde
ENCODING 227
SWIDTH 581 0
DWIDTH 16 0
BBX 19 24 -1 0
BITMAP
00F0C0
01F9E0
03FFC0
07BF80
079F00
000000
000000
002000
007800
00F800
03F800
07F800
07FC00
0FBC00
0FBC00
1F3C00
1E1F80
3FFF80
3FFF00
7FFE00
798F00
781F00
F03E00
701C00
ENDCHAR
STARTCHAR adieresis
ENCODING 228
SWIDTH 581 0
DWIDTH 16 0
BBX 18 24 -1 0
BITMAP
008000
03C780
03E7C0
03C7C0
038300
000000
000000
002000
007800
00F800
03F800
07F800
07FC00
0FBC00
0FBC00
1F3C00
1E1F80
3FFF80
3FFF00
7FFE00
798F00
781F00
F03E00
701C00
ENDCHAR
STARTCHAR aring
ENCODING 229
SWIDTH 581 0
DWIDTH 16 0
BBX 17 23 -1 0
BITMAP
000C00
001E00
003E00
007E00
00F700
00EF00
00FF00
00FE00
00F800
03F800
07F800
07FC00
0FBC00
0FBC00
1F3C00
1E1F80
3FFF80
3FFF00
7FFE00
798F00
781F00
F03E00
701C00
ENDCHAR
STARTCHAR ae
ENCODING 230
SWIDTH 948 0
DWIDTH 27 0
BBX 29 17 -2 0
BITMAP
00100030
001E0FF8
003E7FF8
01FEFFF0
03FEFF80
03FEF800
07DEF000
079EFF80
0F9EFFE0
1F1FFFC0
1FFFFF00
3FFFE000
7FFFC040
798FFFE0
F81FFFF0
F03FFFE0
603DFFC0
ENDCHAR
STARTCHAR ccedilla
ENCODING 231
SWIDTH 513 0
DWIDTH 14 0
BBX 14 25 0 -8
BITMAP
0020
00F8
01FC
07FC
1FF8
3FE0
7F00
7E00
F800
F000
F000
E000
F000
7FF0
7FF8
1FF8
07F0
0E00
0E00
0F80
07C0
00E0
27E0
3FC0
1F00
ENDCHAR
STARTCHAR egrave
ENCODING 232
SWIDTH 521 0
DWIDTH 15 0
BBX 15 26 0 0
BITMAP
0400
0E00
0F00
1F80
07C0
03E0
01F0
00E0
0020
000C
03FE
1FFE
3FFC
3FE0
3E00
1C00
3FF0
3FF8
3FF0
7FC0
7800
F010
FFF8
7FFC
7FF8
7FE0
ENDCHAR
STARTCHAR eacute
ENCODING 233
SWIDTH 521 0
DWIDTH 15 0
BBX 15 26 0 0
BITMAP
0018
003C
007C
00FC
01F8
03F0
03E0
0380
0100
000C
03FE
1FFE
3FFC
3FE0
3E00
1C00
3FF0
3FF8
3FF0
7FC0
7800
F010
FFF8
7FFC
7FF8
7FE0
ENDCHAR
STARTCHAR ecircumflex
ENCODING 234
SWIDTH 521 0
DWIDTH 15 0
BBX 16 25 0 0
BITMAP
0020
00F8
01FC
03FE
07DF
078F
0706
0202
000C
03FE
1FFE
3FFC
3FE0
3E00
1C00
3FF0
3FF8
3FF0
7FC0
7800
F010
FFF8
7FFC
7FF8
7FE0
ENDCHAR
STARTCHAR edieresis
ENCODING 235
SWIDTH 521 0
DWIDTH 15 0
BBX 17 24 0 0
BITMAP
010000
078F00
07CF80
078F80
070600
000000
000000
000C00
03FE00
1FFE00
3FFC00
3FE000
3E0000
1C0000
3FF000
3FF800
3FF000
7FC000
780000
F01000
FFF800
7FFC00
7FF800
7FE000
ENDCHAR
STARTCHAR igrave
ENCODING 236
SWIDTH 320 0
DWIDTH 9 0
BBX 9 27 2 0
BITMAP
2000
7000
F800
FC00
7E00
1F00
0F80
0700
0100
0000
1000
3000
3800
7800
7C00
7800
7800
F800
F000
F000
F000
F000
F000
F000
F000
F000
7000
ENDCHAR
STARTCHAR iacute
ENCODING 237
SWIDTH 320 0
DWIDTH 9 0
BBX 13 27 2 0
BITMAP
0020
0070
00F8
01F8
03F0
07C0
0F80
0700
0400
0000
1000
3000
3800
7800
7C00
7800
7800
F800
F000
F000
F000
F000
F000
F000
F000
F000
7000
ENDCHAR
STARTCHAR icircumflex
ENCODING 238
SWIDTH 320 0
DWIDTH 9 0
BBX 12 26 1 0
BITMAP
0600
0F00
1F80
3FC0
F9F0
F1F0
6060
2040
0000
0800
1800
1C00
3C00
3E00
3C00
3C00
7C00
7800
7800
7800
7800
7800
7800
7800
7800
3800
ENDCHAR
STARTCHAR idieresis
ENCODING 239
SWIDTH 320 0
DWIDTH 9 0
BBX 12 24 1 0
BITMAP
2000
71E0
F9F0
F9F0
E060
0000
0000
0800
1800
1C00
3C00
3E00
3C00
3C00
7C00
7800
7800
7800
7800
7800
7800
7800
7800
3800
ENDCHAR
STARTCHAR eth
ENCODING 240
SWIDTH 541 0
DWIDTH 15 0
BBX 16 17 -1 0
BITMAP
0800
0F00
0FC0
0FF0
0DF8
0E7C
0E1E
FF8E
FF87
7F8F
6E1F
1E7E
1FFC
1FF8
1FE0
1F80
1E00
ENDCHAR
STARTCHAR ntilde
ENCODING 241
SWIDTH 564 0
DWIDTH 16 0
BBX 20 24 0 0
BITMAP
007860
00FCF0
01FFE0
03DFC0
03CF80
000000
000000
040400
070700
0F8F00
0F8F80
0F8F00
1F8F00
1F1E00
3F1E00
3F1E00
7F3E00
7F3E00
FFFC00
FBFC00
FBF800
F1F800
70F000
606000
ENDCHAR
STARTCHAR ograve
ENCODING 242
SWIDTH 628 0
DWIDTH 18 0
BBX 17 26 0 0
BITMAP
004000
00E000
01F000
01F800
007C00
003E00
001F00
000E00
000200
003000
00F800
01FC00
03F800
07FC00
0FFC00
1FDE00
3F0E00
3C0F00
7C0700
780700
F00F80
F03F80
FFFF00
7FFE00
7FFC00
3FE000
ENDCHAR
STARTCHAR oacute
ENCODING 243
SWIDTH 628 0
DWIDTH 18 0
BBX 17 27 0 0
BITMAP
000C00
001C00
003E00
007E00
00FC00
01F800
01E000
01C000
010000
000000
003000
00F800
01FC00
03F800
07FC00
0FFC00
1FDE00
3F0E00
3C0F00
7C0700
780700
F00F80
F03F80
FFFF00
7FFE00
7FFC00
3FE000
ENDCHAR
STARTCHAR ocircumflex
ENCODING 244
SWIDTH 628 0
DWIDTH 18 0
BBX 17 26 0 0
BITMAP
001000
003C00
00FE00
01FF00
03EF80
03C780
018380
010100
000000
003000
00F800
01FC00
03F800
07FC00
0FFC00
1FDE00
3F0E00
3C0F00
7C0700
780700
F00F80
F03F80
FFFF00
7FFE00
7FFC00
3FE000
ENDCHAR
STARTCHAR otilde
ENCODING 245
SWIDTH 628 0
DWIDTH 18 0
BBX 20 24 0 0
BITMAP
007860
00FCF0
01FFE0
03DFC0
03CF80
000000
000000
003000
00F800
01FC00
03F800
07FC00
0FFC00
1FDE00
3F0E00
3C0F00
7C0700
780700
F00F80
F03F80
FFFF00
7FFE00
7FFC00
3FE000
ENDCHAR
STARTCHAR odieresis
ENCODING 246
SWIDTH 628 0
DWIDTH 18 0
BBX 18 24 0 0
BITMAP
004000
01C3C0
03E3C0
03E3C0
01C180
000000
000000
003000
00F800
01FC00
03F800
07FC00
0FFC00
1FDE00
3F0E00
3C0F00
7C0700
780700
F00F80
F03F80
FFFF00
7FFE00
7FFC00
3FE000
ENDCHAR
STARTCHAR divide
ENCODING 247
SWIDTH 559 0
DWIDTH 16 0
BBX 15 16 0 0
BITMAP
01C0
03E0
03E0
03C0
01A0
0000
1FF8
FFFC
FFFE
7FF8
2000
0400
0F00
0F80
0F00
0F00
ENDCHAR
STARTCHAR oslash
ENCODING 248
SWIDTH 632 0
DWIDTH 18 0
BBX 17 20 0 -3
BITMAP
003100
007B80
01FF80
03FF00
07FF00
0FFE00
1FBE00
3F7E00
3EFF00
7CF700
79E700
F3C780
F79F80
FFFF00
7FFE00
7FFC00
3FF000
3E0000
3C0000
1C0000
ENDCHAR
STARTCHAR ugrave
ENCODING 249
SWIDTH 584 0
DWIDTH 16 0
BBX 16 26 1 0
BITMAP
0600
0700
0F80
0FC0
07E0
03F0
00F0
0070
0010
0004
0006
200E
700F
700F
780F
780F
F81F
F03E
F03E
F0FC
FBF8
FFF0
7FE0
7FE0
3F80
1E00
ENDCHAR
STARTCHAR uacute
ENCODING 250
SWIDTH 584 0
DWIDTH 16 0
BBX 16 25 1 0
BITMAP
000C
001E
003E
007E
00FC
01F8
01F0
01C0
0104
0006
200E
700F
700F
780F
780F
F81F
F03E
F03E
F0FC
FBF8
FFF0
7FE0
7FE0
3F80
1E00
ENDCHAR
STARTCHAR ucircumflex
ENCODING 251
SWIDTH 584 0
DWIDTH 16 0
BBX 16 26 1 0
BITMAP
0040
01F0
03F8
07FC
0FBE
0F1E
0E0E
0404
0000
0004
0006
200E
700F
700F
780F
780F
F81F
F03E
F03E
F0FC
FBF8
FFF0
7FE0
7FE0
3F80
1E00
ENDCHAR
STARTCHAR udieresis
ENCODING 252
SWIDTH 584 0
DWIDTH 16 0
BBX 16 24 1 0
BITMAP
0200
0F1E
0F9F
0F1F
0E0C
0000
0000
0004
0006
200E
700F
700F
780F
780F
F81F
F03E
F03E
F0FC
FBF8
FFF0
7FE0
7FE0
3F80
1E00
ENDCHAR
STARTCHAR yacute
ENCODING 253
SWIDTH 400 0
DWIDTH 11 0
BBX 14 29 1 -1
BITMAP
0008
003C
007C
00FC
01F8
03F0
03E0
03C0
0100
0000
0000
4030
F078
70F8
79F8
7BF0
7BE0
7FC0
3F80
3F00
1F00
1E00
3E00
7C00
7C00
F800
F000
F000
6000
ENDCHAR
STARTCHAR thorn
ENCODING 254
SWIDTH 579 0
DWIDTH 16 0
BBX 15 17 1 0
BITMAP
1800
3800
3800
7FF0
7FFC
7FFE
783E
F83E
F87E
F1FE
FFF8
FFF0
FF80
FC00
F000
F000
7000
ENDCHAR
STARTCHAR ydieresis
ENCODING 255
SWIDTH 400 0
DWIDTH 11 0
BBX 15 26 1 -1
BITMAP
0400
1E3C
1F3E
1E3E
1C18
0000
0000
0000
4030
F078
70F8
79F8
7BF0
7BE0
7FC0
3F80
3F00
1F00
1E00
3E00
7C00
7C00
F800
F000
F000
6000
ENDCHAR
STARTCHAR dotlessi
ENCODING 305
SWIDTH 320 0
DWIDTH 9 0
BBX 6 17 2 0
BITMAP
10
30
38
78
7C
78
78
F8
F0
F0
F0
F0
F0
F0
F0
F0
70
ENDCHAR
STARTCHAR Lslash
ENCODING 321
SWIDTH 632 0
DWIDTH 18 0
BBX 20 20 -3 0
BITMAP
00F000
00F000
01F800
01F000
01F000
03E000
03F800
07FE00
1FFC00
7FF000
FFC000
7F8000
3F8000
1F8000
1F0F80
1FFFE0
1FFFF0
0FFFF0
0FFFF0
07E000
ENDCHAR
STARTCHAR lslash
ENCODING 322
SWIDTH 533 0
DWIDTH 15 0
BBX 17 17 -3 0
BITMAP
018000
01E000
01E000
03E000
03C000
03C000
07F800
0FF800
7FF000
FF8000
7F0000
2F0000
1F1C00
1FFF00
1FFF80
0FFF80
0FF300
ENDCHAR
STARTCHAR OE
ENCODING 338
SWIDTH 1212 0
DWIDTH 34 0
BBX 35 21 0 0
BITMAP
000C000000
001E001F80
003F01FFE0
007F9FFFE0
01FF3FFFC0
03FF1FFE00
07FF9FE000
0FFF9F0000
1FC7CFB800
1F83DFFC00
3F03FFFF00
7E01FFFE00
7C01FFFC00
7801FE0000
F803FC0000
F80FFC0200
FFFFFFFF00
7FFFFFFF80
7FFFFFFF80
3FFE3FFF00
1FF83FF800
ENDCHAR
STARTCHAR oe
ENCODING 339
SWIDTH 1010 0
DWIDTH 28 0
BBX 29 17 0 0
BITMAP
00300070
00F80FF8
01FCFFF8
03F9FFF0
07FCFF80
0FFCF800
1FDEF000
3F0EFF80
3C0FFFC0
7C07FFC0
7807FF00
F00FE000
F03FC040
FFFFFFE0
7FFFFFF0
7FFFFFE0
3FE1FF80
ENDCHAR
STARTCHAR Scaron
ENCODING 352
SWIDTH 576 0
DWIDTH 16 0
BBX 19 30 0 0
BITMAP
010100
018380
03C780
03EF80
01FF00
00FE00
003C00
001800
000000
000000
007FC0
03FFC0
1FFFE0
3FFFE0
7FF7C0
FF0000
FFC000
FFE000
7FF000
1FF800
00F800
001C00
003C00
007C00
01FC00
07F800
3FF000
3FE000
3FC000
3E0000
ENDCHAR
STARTCHAR scaron
ENCODING 353
SWIDTH 463 0
DWIDTH 13 0
BBX 16 27 0 0
BITMAP
0808
0C0C
1E3C
1F3E
07F8
03F0
01E0
00C0
0000
0000
007E
03FE
1FFF
7FFF
FF80
FE00
FF80
7FC0
1FE0
00E0
0070
00F0
03E0
0FE0
7FC0
7F80
7E00
ENDCHAR
STARTCHAR Ydieresis
ENCODING 376
SWIDTH 493 0
DWIDTH 14 0
BBX 16 29 1 -1
BITMAP
0200
0F1E
0F9F
0F1F
0E0C
0000
0000
4004
701E
783F
787F
78FE
7CFC
7DF8
7FF0
7FF0
3FE0
3FC0
1FC0
1F80
1F00
3F00
3E00
7E00
7C00
FC00
F800
7800
3000
ENDCHAR
STARTCHAR Zcaron
ENCODING 381
SWIDTH 664 0
DWIDTH 19 0
BBX 20 31 0 -1
BITMAP
002020
007060
0078F0
007DF0
003FE0
001FC0
000F00
000600
000000
000000
0FFFC0
0FFFE0
0FFFE0
07FFE0
07FFE0
001FC0
003F80
00FF00
01FE00
07FC00
0FF000
3FE000
7F8000
FF0000
FE0700
F87F80
FFFF80
FFFF80
FFFE00
7FF000
3F0000
ENDCHAR
STARTCHAR zcaron
ENCODING 382
SWIDTH 547 0
DWIDTH 15 0
BBX 17 29 0 -1
BITMAP
010100
018380
03C780
03EF80
01FF00
00FE00
003C00
001800
000000
000000
000000
070000
1FFE00
1FFF00
0FFF00
043F00
00FE00
01F800
03F000
0FE000
1FC000
7F0000
FE0000
FC1800
F8FE00
FFFC00
FFF800
7FC000
3E0000
ENDCHAR
STARTCHAR circumflex
ENCODING 710
SWIDTH 754 0
DWIDTH 21 0
BBX 11 8 7 14
BITMAP
0400
1E00
3F80
7FC0
FBE0
F1E0
E0C0
4040
ENDCHAR
STARTCHAR caron
ENCODING 711
SWIDTH 754 0
DWIDTH 21 0
BBX 11 8 7 14
BITMAP
4040
E0C0
F1E0
FBE0
7FC0
3F80
1E00
0C00
ENDCHAR
STARTCHAR breve
ENCODING 728
SWIDTH 754 0
DWIDTH 21 0
BBX 11 7 7 15
BITMAP
4040
E0C0
F1E0
FFE0
7FC0
3F80
0400
ENDCHAR
STARTCHAR dotaccent
ENCODING 729
SWIDTH 754 0
DWIDTH 21 0
BBX 5 5 10 16
BITMAP
20
F0
F8
F0
E0
ENDCHAR
STARTCHAR ring
ENCODING 730
SWIDTH 754 0
DWIDTH 21 0
BBX 8 9 8 14
BITMAP
04
0E
1E
7E
7F
E7
FF
FF
7C
ENDCHAR
STARTCHAR ogonek
ENCODING 731
SWIDTH 754 0
DWIDTH 21 0
BBX 11 9 8 -8
BITMAP
6000
6000
E000
E000
F000
7FC0
3FE0
1FE0
0100
ENDCHAR
STARTCHAR tilde
ENCODING 732
SWIDTH 754 0
DWIDTH 21 0
BBX 14 5 5 16
BITMAP
1F1C
3FBC
7FF8
7FF8
F3F0
ENDCHAR
STARTCHAR hungarumlaut
ENCODING 733
SWIDTH 754 0
DWIDTH 21 0
BBX 16 9 4 12
BITMAP
0206
070E
0F9F
1FBF
3F7E
7CFC
F8F8
70E0
4080
ENDCHAR
STARTCHAR endash
ENCODING 8211
SWIDTH 588 0
DWIDTH 16 0
BBX 15 5 0 5
BITMAP
0040
7FFC
FFFE
7FFE
7800
ENDCHAR
STARTCHAR emdash
ENCODING 8212
SWIDTH 878 0
DWIDTH 25 0
BBX 23 5 0 5
BITMAP
03FF80
FFFFF8
7FFFFE
7FFFFC
180000
ENDCHAR
STARTCHAR quoteleft
ENCODING 8216
SWIDTH 203 0
DWIDTH 6 0
BBX 6 8 3 13
BITMAP
78
7C
F8
F8
F0
F0
E0
E0
ENDCHAR
STARTCHAR quoteright
ENCODING 8217
SWIDTH 199 0
DWIDTH 6 0
BBX 6 9 2 12
BITMAP
38
3C
3C
3C
7C
78
F8
F0
20
ENDCHAR
STARTCHAR quotesinglbase
ENCODING 8218
SWIDTH 204 0
DWIDTH 6 0
BBX 6 9 -3 -5
BITMAP
30
3C
3C
3C
7C
7C
F8
F0
20
ENDCHAR
STARTCHAR quotedblleft
ENCODING 8220
SWIDTH 410 0
DWIDTH 11 0
BBX 12 9 3 12
BITMAP
71E0
79F0
FBE0
FBE0
F3C0
F7C0
E780
E380
6000
ENDCHAR
STARTCHAR quotedblright
ENCODING 8221
SWIDTH 425 0
DWIDTH 12 0
BBX 13 9 2 12
BITMAP
3870
3C78
3CF8
3CF8
7DF0
79E0
FBE0
F3C0
2080
ENDCHAR
STARTCHAR quotedblbase
ENCODING 8222
SWIDTH 430 0
DWIDTH 12 0
BBX 13 9 -3 -5
BITMAP
3060
3C78
3CF8
3CF8
7DF0
7DF0
FBE0
F3C0
2180
ENDCHAR
STARTCHAR bullet
ENCODING 8226
SWIDTH 299 0
DWIDTH 8 0
BBX 6 7 1 5
BITMAP
20
78
F8
FC
F8
F8
60
ENDCHAR
STARTCHAR ellipsis
ENCODING 8230
SWIDTH 768 0
DWIDTH 22 0
BBX 20 5 -1 -1
BITMAP
7870F0
F8F9F0
F8F0F0
78F0F0
206060
ENDCHAR
STARTCHAR perthousand
ENCODING 8240
SWIDTH 889 0
DWIDTH 25 0
BBX 24 20 1 0
BITMAP
040080
0E0180
1E0380
3F0780
770F00
F79E00
FF3C00
7F7800
3CF000
01E000
03C000
079C0C
0F3C1E
1E7C3E
3CFE7E
78EEF7
71FFFF
F1FEFF
F0FCFE
E06030
ENDCHAR
STARTCHAR guilsinglleft
ENCODING 8249
SWIDTH 322 0
DWIDTH 9 0
BBX 8 13 0 -1
BITMAP
03
07
0F
1E
7C
F8
F0
F0
78
3C
1E
0E
02
ENDCHAR
STARTCHAR guilsinglright
ENCODING 8250
SWIDTH 341 0
DWIDTH 10 0
BBX 9 13 -1 -1
BITMAP
2000
3800
3C00
1E00
0F00
0780
0F80
1F80
3E00
7800
F000
E000
4000
ENDCHAR
STARTCHAR fraction
ENCODING 8260
SWIDTH 541 0
DWIDTH 15 0
BBX 15 21 0 0
BITMAP
0002
000E
000E
001E
003E
007C
0078
00F0
01E0
03E0
03C0
0780
0F00
1E00
3C00
7C00
7800
F000
F000
F000
7000
ENDCHAR
STARTCHAR Euro
ENCODING 8364
SWIDTH 565 0
DWIDTH 16 0
BBX 16 17 -1 0
BITMAP
000C
001E
007F
01FF
03FE
07F0
0FE0
1F80
7FF8
FFFC
7FFC
7C00
1F80
0FFE
07FE
03FE
003C
ENDCHAR
STARTCHAR Delta
ENCODING 8710
SWIDTH 403 0
DWIDTH 11 0
BBX 16 17 -1 0
BITMAP
03FC
1FFE
0FFF
0FFC
05E0
01E0
01C0
03C0
03C0
0380
0780
0780
0F00
0FC0
FFE0
FFE0
FF00
ENDCHAR
STARTCHAR minus
ENCODING 8722
SWIDTH 548 0
DWIDTH 15 0
BBX 14 5 0 5
BITMAP
0040
FFF8
FFFC
FFFC
7000
ENDCHAR
STARTCHAR approxequal
ENCODING 8776
SWIDTH 323 0
DWIDTH 9 0
BBX 7 20 1 0
BITMAP
0C
1C
3E
3E
3E
3E
3E
7C
7C
7C
F8
F8
F8
F8
F8
F8
F8
78
78
78
ENDCHAR
STARTCHAR fi
ENCODING 64257
SWIDTH 810 0
DWIDTH 23 0
BBX 22 17 -1 0
BITMAP
001F08
01FF98
0FFFFC
3FFFBC
3F803C
1F003C
0F007C
0F0078
2F7878
7FFC78
FFF878
7FF0F0
3C00F0
3800F0
780070
780078
380070
ENDCHAR
STARTCHAR fl
ENCODING 64258
SWIDTH 1012 0
DWIDTH 28 0
BBX 29 17 -1 0
BITMAP
001F1000
01FFBC00
0FFFFE00
3FFFBC00
3F807C00
1F007800
0F007800
0F00F800
2F78F000
7FFCF000
FFF9F000
7FF1E000
3C01E180
3801FFF0
7801FFF8
7801FFF8
3800FE20
ENDCHAR
STARTCHAR .notdef
ENCODING -1
SWIDTH 370 0
DWIDTH 10 0
BBX 1 1 0 0
BITMAP
00
ENDCHAR
ENDFONT
